<svg xmlns="http://www.w3.org/2000/svg" viewBox="0 0 64 64">
  <defs>
    <linearGradient id="ocean" x1="0" x2="1" y1="0" y2="1">
      <stop offset="0" stop-color="#2f7a6d"/>
      <stop offset="1" stop-color="#6ec2a9"/>
    </linearGradient>
  </defs>
  <circle cx="32" cy="32" r="30" fill="url(#ocean)"/>
  <path d="M18 26c6-7 18-9 28-5 3 1 6 3 8 6-1 2-4 5-7 6-7 3-17 4-25 2-4-1-8-4-11-9z" fill="#f1c56d" opacity="0.9"/>
  <path d="M14 36c4 7 14 11 24 10 4-1 8-2 12-4-2 4-6 7-11 9-9 3-19 1-25-4-2-2-4-6 0-11z" fill="#bac9a3" opacity="0.9"/>
  <circle cx="32" cy="32" r="29" fill="none" stroke="#1f3f2b" stroke-width="2" opacity="0.4"/>
</svg>
