<svg xmlns="http://www.w3.org/2000/svg" viewBox="0 0 160 160">
  <defs>
    <linearGradient id="earthGradient" x1="0" y1="0" x2="1" y2="1">
      <stop offset="0%" stop-color="#7fd1c9" />
      <stop offset="100%" stop-color="#2f6d7a" />
    </linearGradient>
  </defs>
  <circle cx="80" cy="80" r="60" fill="url(#earthGradient)" />
  <path d="M50 60c8-12 24-14 34-6 10 8 18 6 28 2 6-2 14 2 16 10-8 8-16 12-22 20-8 12-26 16-44 8-12-6-14-22-12-34z" fill="#7fc68a" />
  <path d="M64 100c8 2 18 0 26-6 8-6 14-4 18 2-6 10-18 16-32 18-12 2-18-4-12-14z" fill="#5da870" />
  <circle cx="60" cy="70" r="6" fill="#1b1b1b" />
  <circle cx="100" cy="70" r="6" fill="#1b1b1b" />
  <path d="M60 94c6 8 20 8 26 0" fill="none" stroke="#1b1b1b" stroke-width="4" stroke-linecap="round" />
  <path d="M80 20c-2 10 6 14 12 18 6 4 10 8 8 18" fill="none" stroke="#7fc68a" stroke-width="6" stroke-linecap="round" />
  <circle cx="90" cy="22" r="6" fill="#7fc68a" />
</svg>
