<?xml version="1.0" encoding="iso-8859-1"?>
<!-- Uploaded to: SVG Repo, www.svgrepo.com, Generator: SVG Repo Mixer Tools -->
<svg height="800px" width="800px" version="1.1" id="Layer_1" xmlns="http://www.w3.org/2000/svg" xmlns:xlink="http://www.w3.org/1999/xlink" 
	 viewBox="0 0 511.844 511.844" xml:space="preserve">
<path style="fill:#5D9CEC;" d="M427.256,0H213.071L124.52,88.551h0.016l-60.747,60.747v341.225c0,11.778,9.544,21.321,21.321,21.321
	h342.146c11.777,0,21.322-9.543,21.322-21.321V85.208V21.337C448.578,9.56,439.033,0,427.256,0z M221.913,21.337h205.343v42.534
	H179.363L221.913,21.337z"/>
<path style="opacity:0.2;fill:#FFFFFF;enable-background:new    ;" d="M85.11,490.523V127.961l-21.321,21.337v341.225
	c0,11.778,9.544,21.321,21.321,21.321h21.322C94.654,511.844,85.11,502.301,85.11,490.523z"/>
<path style="fill:#434A54;" d="M111.634,56.451c-4.171-4.17-10.918-4.17-15.089,0L66.382,86.614c-4.155,4.155-4.155,10.919,0,15.073
	c4.17,4.171,10.918,4.171,15.089,0l30.163-30.162C115.789,67.37,115.789,60.607,111.634,56.451z"/>
<path style="fill:#A0D468;" d="M356.027,206.952c0,0-103.515-5.639-152.734,43.315c-30.163,30.006-30.319,78.773-0.359,108.982l0,0
	c30.038,30.115,78.82,30.209,108.982,0.203C361.12,310.499,356.027,206.952,356.027,206.952z"/>
<path style="fill:#8CC153;" d="M275.006,298.112c0-5.889-4.764-10.653-10.653-10.653c-2.952,0-5.623,1.188-7.544,3.125
	l-98.018,98.017c-1.937,1.921-3.124,4.593-3.124,7.544c0,5.889,4.764,10.653,10.653,10.653c2.952,0,5.623-1.187,7.544-3.124
	l98.017-98.018C273.818,303.736,275.006,301.065,275.006,298.112z"/>
</svg>