<?xml version="1.0" encoding="iso-8859-1"?>
<!-- Uploaded to: SVG Repo, www.svgrepo.com, Generator: SVG Repo Mixer Tools -->
<svg height="800px" width="800px" version="1.1" id="Layer_1" xmlns="http://www.w3.org/2000/svg" xmlns:xlink="http://www.w3.org/1999/xlink" 
	 viewBox="0 0 512 512" xml:space="preserve">
<path style="fill:#91C0F1;" d="M422.6,89.935c-44.358-44.358-103.334-68.787-166.065-68.787S134.827,45.577,90.469,89.935
	C46.112,134.293,21.683,193.269,21.683,256s24.43,121.707,68.787,166.065c44.358,44.358,103.334,68.786,166.065,68.786
	s121.707-24.428,166.065-68.786c44.357-44.358,68.786-103.334,68.786-166.065S466.957,134.293,422.6,89.935z"/>
<path style="fill:#D7EDF3;" d="M256.534,21.148c-62.731,0-121.707,24.428-166.065,68.787C46.112,134.293,21.683,193.269,21.683,256
	s24.43,121.707,68.787,166.065c44.358,44.358,103.334,68.786,166.065,68.786V21.148z"/>
<path style="fill:#007871;" d="M512,213.244c0-8.855-7.179-16.033-16.033-16.033H16.033C7.179,197.211,0,204.39,0,213.244v86.58
	c0,8.855,7.179,16.033,16.033,16.033h479.933c8.855,0,16.033-7.179,16.033-16.033V213.244z"/>
<path style="fill:#F5CA47;" d="M312.228,206.664H200.841c-8.855,0-16.033-7.179-16.033-16.033v-55.694
	c0-39.549,32.177-71.726,71.727-71.726s71.727,32.177,71.727,71.726v55.694C328.261,199.485,321.083,206.664,312.228,206.664z
	 M216.874,174.597h79.319v-39.66c0-21.867-17.792-39.659-39.66-39.659s-39.66,17.792-39.66,39.659v39.66H216.874z"/>
<path style="fill:#F7F4A3;" d="M256.516,174.764h-39.531v-39.826c0-21.788,17.607-39.523,39.365-39.653l0.184-0.006V63.212
	c-39.512,0.045-71.616,32.204-71.616,71.726v55.694c0,8.855,7.068,16.2,15.922,16.2h55.674v-32.068H256.516z"/>
<path style="fill:#489B6D;" d="M347.492,168.351H165.577c-9.866,0-18.07,7.861-18.07,17.728v146.148
	c0,32.445,26.573,58.456,59.019,58.456h100.016c32.445,0,59.019-26.009,59.019-58.456V186.078
	C365.562,176.211,357.358,168.351,347.492,168.351z"/>
<path style="fill:#A2CE86;" d="M256.534,168.351h-90.958c-9.866,0-18.07,7.861-18.07,17.728v146.148
	c0,32.445,26.573,58.456,59.019,58.456h50.142L256.534,168.351z"/>
<path style="fill:#2A5637;" d="M276.843,262.413c0-8.855-7.179-16.033-16.033-16.033h-8.551c-8.855,0-16.033,7.179-16.033,16.033
	c0,4.203,1.63,8.016,4.276,10.875v26.536c0,8.855,7.179,16.033,16.033,16.033s16.033-7.179,16.033-16.033v-26.536
	C275.213,270.429,276.843,266.616,276.843,262.413z"/>
<path style="fill:#4E7F4B;" d="M256.668,246.38h-4.409c-8.855,0-16.033,7.179-16.033,16.033c0,4.203,1.63,8.016,4.276,10.875v26.536
	c0,8.855,7.179,16.033,16.033,16.033L256.668,246.38z"/>
</svg>