<?xml version="1.0" encoding="iso-8859-1"?>
<!-- Uploaded to: SVG Repo, www.svgrepo.com, Generator: SVG Repo Mixer Tools -->
<svg height="800px" width="800px" version="1.1" id="Layer_1" xmlns="http://www.w3.org/2000/svg" xmlns:xlink="http://www.w3.org/1999/xlink" 
	 viewBox="0 0 512 512" xml:space="preserve">
<circle style="fill:#E4E7ED;" cx="256" cy="256" r="256"/>
<path style="fill:#15BDB2;" d="M256,266.442c95.057,0,174.677,65.773,195.958,154.247C404.969,476.531,334.656,512,256,512
	s-149.026-35.469-195.958-91.311C81.323,332.215,161,266.442,256,266.442z"/>
<path style="fill:#6B7F9E;" d="M256,266.442c79.848,0,148.856,46.422,181.487,113.727c4.2,15.606,6.753,31.894,7.378,48.635
	C398.046,479.936,330.797,512,256,512c-78.656,0-149.026-35.469-195.958-91.311C81.323,332.215,161,266.442,256,266.442z"/>
<path style="fill:#F7F9F7;" d="M381.929,310.65c34.277,27.467,59.417,65.944,70.03,110.039
	c-10.045,11.918-21.168,22.984-33.199,32.915l-0.227-0.624c-1.419-4.143-3.008-7.207-4.086-11.918
	c-0.568-2.554-0.965-7.378-1.532-9.08c-2.781,0.397-2.667,2.157-5.278,0.341c-1.873-1.362-1.021-2.157-2.043-4.2
	c-2.213-2.043-4.427-4.143-6.697-6.186c-1.759-0.568-8.456,0.397-11.293,0.113c-5.108-0.454-5.562-0.17-8.569-4.256
	c-5.335,0.284-4.881,2.27-10.158-2.213c-3.405-2.894-2.781-7.548-7.718-4.937c-0.17,4.256,1.873,5.164,3.746,7.151
	c1.362,1.532,3.008,2.554,3.746,4.54c0.057,0.057,0.397,1.986,0.454,2.213c4.824,0.34,6.016-1.986,8.626-3.973
	c2.611,2.44,0.057,2.837,3.802,4.767c2.951,1.475,2.384,0.624,4.313,3.065c0.965,3.235-6.64,12.088-9.137,13.677
	c-1.93,1.249-2.951,0.511-4.71,1.93c-2.554,2.156,0.341,1.873-4.2,3.519c-4.824,1.759-9.648,5.505-14.698,5.789
	c-1.078-3.008-2.213-6.016-3.292-9.08c-3.235-10.385-3.121-6.356-6.413-11.747c-1.532-2.327-0.908-3.802-1.93-5.902
	c-0.738-1.532-1.816-2.213-2.781-4.143c-1.475-2.951-3.235-7.548-6.64-7.094c-0.738,2.327,3.178,10.158,4.143,12.088
	s2.497,2.724,2.951,5.505c0.624,3.746-0.113,3.292,1.93,5.845c4.313,5.221-0.17,4.313,6.526,9.421
	c5.051,3.802,3.745,4.937,5.845,10.102c3.292,0.908,13.109-3.462,14.755-2.157c1.986,3.575-2.327,9.25-3.405,12.372
	c-3.632,10.385-9.931,10.215-14.755,18.217c-2.611,4.256-3.859,4.881-6.299,9.988c-17.309,6.299-35.469,10.783-54.253,13.28
	c-0.057-0.17-0.057-0.397-0.113-0.624c-0.965-6.016-1.532-11.35-5.562-16.06c-4.37-5.108-3.802-3.292-2.384-11.747
	c1.816-9.648-2.327-7.207-8.115-7.434c-2.838-8.796-8.399-4.483-13.961-1.93c-3.462,1.589-4.767-0.454-8.74,0.113
	c-8.796,1.192-1.873,4.937-13.62-4.313c-4.881-3.859-1.589-1.93-4.54-6.753c-0.965-1.759-3.916-4.086-5.278-5.845
	c-4.427-5.562,0.851-11.237,0.057-17.593c-1.362-11.861-3.292-1.532,3.348-15.89c3.462-7.661,8.796-7.718,10.158-11.123
	c1.135-3.065,0.397-5.221,2.554-8.002c1.93-2.27,4.71-1.816,5.789-5.391c1.532-4.37-1.419-4.937-4.654-5.051
	c-1.362-4.597-1.362-3.462-0.34-7.718c0.567-2.383,0.057-3.518,0.567-5.902c1.305-5.959,11.407-0.057,14.301-2.497
	c1.362-2.554,1.532-4.994,0-7.434c-1.646-2.44-3.746-2.1-4.824-4.427c2.44-1.646,0.624-0.227,2.781-0.681
	c2.497-0.568,2.213-1.305,5.164-1.873c2.667-0.511,4.313-2.951,6.924-4.597c3.689-2.384,1.93-4.483,6.413-5.221
	c7.151-1.249,2.497-1.022,3.292-7.718c1.078-0.397,2.1-0.908,3.178-1.362c2.27,2.951-0.568,1.759,2.156,3.746
	c0.738-0.397,1.532-0.851,2.327-1.249c-0.397-3.235-1.873-2.611-2.838-6.583c-3.575,0.568-4.824,3.575-7.661,2.497
	c-2.781-1.022-2.894-4.994-2.781-8.342c1.021-2.497,6.186-3.802,8.172-4.427c3.235-1.078,2.781-3.235,5.732-6.186
	c3.859-3.859,1.022,0.057,2.894-4.937c4.256-0.17,2.27-0.341,4.767-1.589l0.113-0.057l0.284-0.113
	c1.475-0.681,3.405-0.851,5.335-1.475c7.094-2.384,9.988-1.192,15.152,0.908c3.973,1.646,16.06,1.703,16.968,6.753
	c-2.894,3.064-5.675,0.794-9.875,1.078c0.794,3.916,1.078,3.916,4.654,4.994c0.567-1.873-0.284-1.135,0.681-2.327
	c1.192,0.284,2.327,0.454,3.462,0.681c1.192-3.973,2.497-3.405,6.47-3.859c-0.624-2.724-1.362-1.986,0.113-4.143
	c4.086,0.397,0.794,0.057,2.781,3.292c2.837-0.341,5.618-3.519,9.534-3.916c2.44-0.284,2.327,0.681,5.789,0.284
	c2.837-0.284,2.724-1.362,5.562-0.17c1.021-1.93,0-1.873,2.497-2.327c3.859-0.681,7.207,1.703,10.953,2.213
	c-2.781-3.405-5.391-2.724-1.986-8.399c4.313-0.851,4.71-0.284,6.583,3.008c1.078-0.624,1.532-1.192,2.043-1.475L381.929,310.65z
	 M209.522,507.801c-32.348-5.959-62.595-17.933-89.438-34.845c0-1.078-0.057-2.27-0.34-3.632c-0.567-2.327-2.27-5.562-3.689-6.583
	c-2.724,1.192-1.419,1.873-2.838,4.143c-2.213-1.249-4.37-2.497-6.526-3.746c-6.64-6.413-3.121-1.759-4.994-5.959
	c-4.029-8.796-7.832-3.859-12.599-8.229c-2.1-1.816-2.497-4.597-5.959-4.143c-8.229-7.548-15.947-15.606-23.097-24.119
	c9.534-39.725,30.872-74.91,60.098-101.583c2.327,0.794,5.448,0.284,7.775,0.17c0.851-1.532,1.362-2.894,2.838-3.462
	c0.568-0.227,1.305-0.227,2.27-0.227c0.114,0.794,0.341,1.532,0.511,2.327c0,0.057,0.113,0.568,0.057,0.454
	c0.057-0.113,0.114,0.284,0.17,0.454c4.086-2.384,0.624-2.44,2.838-6.697c-3.405-0.681-2.951-0.284-5.108-2.44
	c2.043-2.27,6.072-3.065,9.023-2.838c-0.17,2.043-1.135,2.043-0.397,3.746c2.327-1.475,3.916-5.335,7.661-4.597
	c0.681,0.511,1.532,0.965,2.327,1.419c-1.93,1.816-4.824,1.93-7.378,2.951c-1.078,11.237,3.575,1.816,1.986,9.534
	c2.781-0.227,5.505-2.213,6.526-4.313c-1.021-1.362-2.497-1.362-3.348-2.951c0.624-2.043,2.043-3.632,3.973-4.54
	c1.305-0.624,2.894-0.965,4.71-0.965c20.544,0.17,10.783,1.078,17.082,3.973c1.419,0.624,3.916,0.908,4.767,2.156
	c1.305,1.986,0.057,3.802,2.1,5.391c1.816,1.362,2.043-0.057,4.483,2.951c-0.511,1.702-1.759,3.462-4.256,3.518
	c-3.462,0.057-1.419-2.327-5.164-1.986c0.057,3.519,3.575,4.881,0.34,6.753c-2.838,1.702-1.021-0.624-3.178,0.568
	c-0.057,0.057-0.284,0.17-0.34,0.227c-0.114,0.113-0.284,0.227-0.34,0.34c-0.397,0.397-0.738,0.795-1.022,1.135
	c-5.164-1.419-4.2-0.794-7.321-4.199c-1.135-1.305-1.362-1.589-3.405-1.419c-1.305,0.057-2.951,0.624-4.2-0.511
	c2.497-3.178,3.746-0.114,7.434-1.986c0.624-0.341,4.71-3.462,5.335-4.2c-1.078-2.497-0.114-0.397-1.759-1.986
	c-3.632-3.689-4.654-2.724-9.534-2.724c-2.27,2.667-4.029,5.902-6.526,7.321c-1.532,0.851-3.292,1.078-5.675,0.057
	c1.078,4.427,3.916,1.022,4.2,6.413c-1.873-0.341-2.838-1.305-4.767-0.624c-4.143,1.532-0.454,1.419-0.114,2.213
	c0,0.057,1.93,0.227,0,0.965c-2.156,0.794-0.34-0.397-4.427-2.837c0.568-1.022,1.135-2.1,1.759-3.178
	c-3.348,1.021-7.548,2.667-11.464,4.597c-4.483,2.213-8.626,4.767-11.18,7.094c-0.057,3.859,0.624,1.305,1.021,5.902
	c6.016,0.341,4.086,2.157,10.045,3.859c1.135,0.341,2.667,0.624,4.483,0.908c0,2.894-2.611,5.051-0.795,8.059
	c4.2,2.951,4.313-2.781,5.335-6.47c14.188-2.951,7.378-7.151,11.01-14.982c0.567-1.192,1.305-2.44,2.44-3.746
	c1.078,0.057,5.562,0.511,6.526,0.738c3.235,0.567,1.476,1.362,4.994,2.894c-0.057,2.781-1.476,6.413,2.667,5.732
	c3.178-0.568,2.44-3.065,6.299-3.689c1.759,4.086,1.305,5.845,2.043,10.726c9.307,3.632,5.164,6.583,3.348,13.336
	c1.192,0.568,2.383,1.078,3.632,1.589c-0.057,1.986-0.113,3.859-0.17,5.789c-0.17,0-9.931-2.1-10.612-2.327
	c1.476-4.256,4.2-4.313,5.959-8.626c-3.462,0.624-3.235,1.702-5.732,2.497c-2.27,0.681-3.973,0.227-6.413,0.511
	c-0.851,2.781-0.057-2.44,0.17,1.135c0.114,1.362,0.795,0.057-0.113,1.475c-3.235-1.475-2.1-4.994-8.115-1.759
	c1.362,0.624,2.724,1.192,4.143,1.759c-0.17,3.973-0.511,0.965-1.362,3.632c-2.043,6.753,5.618,2.554,7.605,2.213
	c-0.511,3.575-2.724,3.575-5.789,4.54c-3.405,1.021-4.427,2.44-7.151,3.065c0-4.256-0.624-0.681,1.249-3.632
	c-2.724,0.227-4.71,1.475-7.264,2.611l-0.284,0.113c-3.292,1.362-3.802,1.532-4.2,5.789c-2.838,0.851-6.129,1.873-8.115,3.916
	c-1.986,1.93-4.029,3.802-5.959,5.675c-0.17,0.17-0.34,0.284-0.454,0.397c0.738,5.335,0,5.448-3.235,7.491
	c-2.724,1.759-3.632,1.703-6.129,3.916c-8.059,7.264-4.2,3.859-3.746,16.344c-1.703-0.511-3.292-1.078-4.824-1.646
	c-1.249-8.286,0.454-5.505-6.186-7.434c-7.151-2.043-6.186,1.419-9.137,2.043c-3.292,0.738-4.881-3.008-9.704,0.113
	c-2.667,1.816-5.164,3.008-5.789,6.186c-0.795,3.859-2.497,6.697-2.27,11.01c0.454,11.634,11.01,12.315,13.734,6.867
	c1.816-3.632,1.362-5.561,7.207-4.654c0.568,3.121-0.34,5.391-1.078,7.775c-0.511,1.419-1.93,3.916-1.248,5.845
	c4.2,1.702,4.313-1.476,9.875,1.816c0.397,5.505-2.497,11.747,1.759,14.925c3.292,2.44,3.462,0.284,6.413-0.284
	c3.235-0.568,2.667,1.419,5.618,1.93c1.703-2.043,0.965-0.795,2.043-3.292c1.93-4.37,2.44-2.327,7.037-4.994
	c0.454-0.284,0.851-0.511,1.305-0.851c0.511,1.078,1.078,2.1,1.589,3.178c3.348-3.973,3.745-0.114,7.605,0.965
	c1.646,0.454,2.838,0.624,3.745,0.624c2.838,0.057,3.121-1.305,6.924,0.057c0.454,0.227,1.021,0.34,1.532,0.511
	c0.057,0,0.284,0.113,0.284,0.227c0.057,0.057,0.284,0.227,0.34,0.284c0.624,0.738,0.738,1.419,1.249,2.213
	c2.667,2.554,5.278,5.051,7.888,7.548c5.108,2.043,5.108-1.759,10.896,3.859c2.44,2.327,1.362,2.27,2.724,5.278
	c0.17,0.454,0.568,0.908,0.851,1.475c0.511,1.419,1.078,2.724,1.702,4.086c2.667,3.462,6.243,1.305,9.931,4.881
	c2.1,2.043,0.511,1.419,5.221,2.27c7.321,1.192,4.483,0.511,9.988,4.71c2.1,1.532,2.667,0.681,4.654,1.986
	c2.27,3.178,2.213,6.583,0.851,9.534L209.522,507.801z M122.353,317.177c1.249-1.078,2.44-2.157,3.689-3.178l0.114,0.227
	c0.227,0.397,0.454,0.397,0.738,1.475c-3.292,0.795-3.292,1.362-4.54,1.532V317.177z M294.874,377.105
	c1.759,1.135,3.973,1.986,5.278,3.178c1.702,4.597-0.454,2.384,2.837,7.207c1.873,2.554,1.476,4.427,3.405,5.902
	c3.575-0.454,0.454,0.568,2.667-1.589c0.397-0.397,1.476-1.703,1.816-2.213c-1.135-1.759-1.873-1.93-2.894-3.746
	c3.973-5.335,5.732-2.27,6.697,1.249c2.497,9.761,6.413,6.924,9.648,6.47c3.292-0.454,0.454,0.113,3.405,0.851
	c2.838,0.738,1.476,0,3.462-0.511c6.753-1.646,1.532,11.464,0.851,12.939c-3.689,0.454-2.951-0.341-5.618-0.624
	c-5.335-0.567,0.34,3.235-12.315-0.908c-12.145-3.859-9.534-4.767-12.088,3.689c-2.781-0.227-2.667-0.738-5.221-1.589
	c-0.965-0.397-1.532-0.568-1.93-0.681l-0.113-0.057c-1.022-0.34,0-0.057-2.1-2.043c-1.873-1.759-6.47-2.156-9.704-3.859
	c0-2.781,2.44-5.108-0.511-8.399c-0.965-0.284-14.698,0.34-16.912,0.794c-4.427,0.908-5.221,4.71-11.35,3.859
	c-3.348-0.454-2.213-0.17-3.008-2.1c1.078-1.078,0-0.511,1.873-1.192c0.738-0.227,0.965-0.17,1.702-0.227
	c9.931-1.475,4.824-6.526,11.01-11.35c5.164-4.143,1.078,0.057,3.916-4.937c3.462-0.284,3.008,1.419,6.016-0.057
	c2.44-1.249,1.702-2.327,5.164-2.44c3.121,3.121,2.44,4.937,7.491,7.321c1.986,0.908,3.235,1.476,4.54,3.178
	c2.327,3.292,0.341,2.213,1.249,4.483c0.17-0.113,0.454-0.227,0.681-0.284l0.114-0.057c2.724-1.305-1.362-1.702,3.008-5.561
	c-1.305-0.908-2.213-1.589-3.008-2.043l-0.114-0.057c-3.405-1.986-2.043-0.17-6.47-5.618c-1.192-1.532-1.475-1.646-1.419-4.029
	c3.178-0.568,3.746,1.702,6.583,4.256c0.397,0.34,0.851,0.681,1.305,0.965l0.114,0.113L294.874,377.105z M354.518,372.054
	c0.454,6.299,4.2,8.74,6.867,11.634c-0.341,3.008-1.022,2.213-0.965,6.413c3.178,2.27,5.505,3.689,9.591,2.554
	c0.568-5.051-1.021-4.824-2.611-8.286c0.284-0.397,0.965-0.908,1.078-1.022c1.135-1.532,0.568,0.624,1.135-1.986
	c-3.008-0.965-7.945-4.086-8.342-8.172c1.475-1.192,1.021-0.454,2.1-1.192c2.384-1.532,0.568,0.851,1.986-1.816
	c-1.249-2.384-2.554-2.781-5.562-1.589c-1.305,0.511-4.71,2.951-5.448,3.518L354.518,372.054z M328.129,373.7
	c-1.986-2.781-1.873-4.2-5.732-4.313c-1.532,1.646-3.348,4.143-4.2,6.64c-1.305,3.802-0.397,1.192-0.284,5.335
	c-0.057,0.17,0,0.341,0,0.511c-0.057,2.497-0.624-0.454-0.284,1.816c3.008-0.624,0.738-0.567,2.951-1.305
	c2.156-0.738,8.626-2.667,10.499-2.213c4.427,1.022,8.172,4.54,13.223,1.022c-0.284-4.483-5.675-6.186-9.421-8.172
	c0.17-4.143,1.305-0.851,1.021-4.881c-1.305-0.057-2.043-0.284-3.292,0.284c-2.894,1.305-1.305,1.646-1.305,2.1
	c0.114,2.213,2.894-0.454-0.057,2.27c-0.851,0.738-2.213,0.738-3.235,0.851L328.129,373.7z M252.765,342.374
	c-0.113,7.264,2.384,4.824,4.767,8.399c-1.078,3.064-1.305,0.681-2.497,3.802c-1.078,2.667,0.284,0.284-0.454,4.881
	c1.873,0.113,4.654-0.568,7.094-0.795c3.462-0.284,3.405-0.624,4.654-4.199c-1.93-2.384-3.859-4.767-5.902-7.151
	c-2.497-3.802,0-1.192-0.794-4.37c-0.568-1.135-1.078-2.27-1.589-3.405C254.695,340.671,255.035,340.388,252.765,342.374z"/>
<path style="fill:#FF5B62;" d="M154.247,284.035c1.078,0,2.157,0.17,3.178,0.568c1.362-4.427,5.448-7.605,10.329-7.605
	c1.021,0,1.986,0.17,2.951,0.397c1.419-6.526,7.207-11.407,14.131-11.407c4.767,0,8.967,2.327,11.634,5.845
	c1.816-6.64,7.888-11.52,15.096-11.52c1.362,0,2.667,0.17,3.973,0.511c1.078-7.434,7.434-13.166,15.209-13.166
	c5.448,0,10.215,2.838,12.939,7.094c3.065-2.894,7.207-4.71,11.747-4.71c5.448,0,10.272,2.554,13.393,6.47
	c2.781-7.151,9.761-12.258,17.876-12.258c9.931,0,18.047,7.548,19.068,17.195c0.851-0.17,1.759-0.284,2.667-0.284
	c4.597,0,8.626,2.27,11.123,5.789c2.724-2.043,6.072-3.292,9.704-3.292c8.91,0,16.117,7.207,16.117,16.117v0.794
	c0.34-0.057,0.738-0.057,1.135-0.057c5.391,0,9.704,4.37,9.704,9.704c0,5.391-4.37,9.704-9.704,9.704
	c-4.143,0-7.718-2.611-9.08-6.299c-2.384,1.419-5.164,2.156-8.115,2.156c-6.413,0-11.974-3.746-14.528-9.194
	c-1.873,0.965-4.029,1.532-6.299,1.532c-5.505,0-10.272-3.292-12.372-8.059c-2.781,1.532-5.959,2.44-9.307,2.44
	c-6.583,0-12.372-3.292-15.833-8.342c-2.724,5.845-8.626,9.875-15.436,9.875c-6.526,0-12.258-3.689-15.096-9.137
	c-2.611,2.1-5.959,3.348-9.591,3.348c-1.249,0-2.497-0.17-3.632-0.454c-0.965,7.718-7.548,13.677-15.493,13.677
	c-5.391,0-10.102-2.724-12.939-6.867c-1.873,5.845-7.321,10.045-13.79,10.045c-2.724,0-5.335-0.795-7.491-2.1
	c-1.816,3.405-5.391,5.789-9.534,5.789c-1.873,0-3.689-0.511-5.221-1.362c-1.475,3.065-4.597,5.164-8.229,5.164
	c-5.051,0-9.137-4.086-9.137-9.137c0-5.051,4.086-9.137,9.137-9.137L154.247,284.035z M243.742,287.723
	c2.27,0,4.086,1.816,4.086,4.086c0,2.27-1.816,4.086-4.086,4.086c-2.27,0-4.086-1.816-4.086-4.086
	C239.656,289.539,241.472,287.723,243.742,287.723z M311.275,301.23c2.667,0,4.767,2.156,4.767,4.767
	c0,2.667-2.157,4.767-4.767,4.767c-2.667,0-4.767-2.156-4.767-4.767C306.508,303.33,308.664,301.23,311.275,301.23z
	 M182.736,305.713c2.157,0,3.973,1.759,3.973,3.973c0,2.156-1.759,3.916-3.973,3.916c-2.157,0-3.916-1.759-3.916-3.916
	C178.82,307.529,180.579,305.713,182.736,305.713z M273.479,288.234c4.654,0,8.456,3.802,8.456,8.456
	c0,4.654-3.802,8.456-8.456,8.456c-4.654,0-8.456-3.802-8.456-8.456C265.023,292.036,268.826,288.234,273.479,288.234z"/>
<path style="fill:#5FDC68;" d="M349.695,34.958c-173.258-13.904-126.383,147.38-45.457,97.156
	C341.352,109.074,328.81,50.054,349.695,34.958z"/>
<path style="fill:#6B7F9E;" d="M331.08,42.222c-93.865,15.777-76.613,148.856-74.853,217.296c-8.569-1.816-7.491,7.491-11.237,3.518
	C242.096,199.136,233.016,52.494,331.08,42.222z"/>
<path style="fill:#5FDC68;" d="M158.957,117.019c111.911-15.833,87.679,81.096,37.625,54.31
	C172.01,158.163,173.656,124.34,158.957,117.019z"/>
<path style="fill:#6B7F9E;" d="M249.19,209.692l-2.724,0.17c-9.931-68.27-57.488-73.662-57.658-73.718
	C223.085,141.421,246.579,166.618,249.19,209.692z"/>
<path style="fill:#5FDC68;" d="M339.366,162.589c-111.911-15.833-87.679,81.096-37.625,54.31
	C326.313,203.733,324.668,169.91,339.366,162.589z"/>
<path style="fill:#6B7F9E;" d="M246.352,243.628l2.781,0.511c19.182-69.519,69.292-68.895,69.462-68.951
	C282.389,176.209,254.695,199.307,246.352,243.628z"/>
<path style="fill:#F7635B;" d="M157.936,289.199c1.078,0,2.1,0.17,3.065,0.511c1.305-4.256,5.278-7.378,9.988-7.378
	c0.965,0,1.93,0.113,2.838,0.397c1.362-6.299,6.98-11.066,13.677-11.066c4.597,0,8.683,2.213,11.237,5.675
	c1.759-6.413,7.661-11.123,14.642-11.123c1.305,0,2.611,0.17,3.859,0.511c1.021-7.207,7.207-12.769,14.755-12.769
	c5.278,0,9.875,2.724,12.542,6.867c2.951-2.837,6.98-4.54,11.407-4.54c5.278,0,9.931,2.44,12.996,6.299
	c2.667-6.924,9.421-11.861,17.309-11.861c9.591,0,17.479,7.264,18.444,16.628c0.851-0.17,1.703-0.227,2.554-0.227
	c4.427,0,8.399,2.213,10.726,5.618c2.611-1.986,5.902-3.178,9.421-3.178c8.626,0,15.606,6.98,15.606,15.606v0.794
	c0.34-0.057,0.738-0.057,1.078-0.057c5.221,0,9.421,4.199,9.421,9.421c0,5.221-4.2,9.421-9.421,9.421
	c-4.029,0-7.491-2.554-8.796-6.072c-7.832,4.54-18.047,1.476-21.962-6.81c-1.816,0.965-3.859,1.475-6.072,1.475
	c-5.335,0-9.931-3.235-11.974-7.832c-2.667,1.475-5.732,2.327-9.023,2.327c-6.356,0-11.974-3.178-15.323-8.059
	c-2.611,5.618-8.342,9.534-14.982,9.534c-6.356,0-11.861-3.575-14.642-8.853c-2.554,2.043-5.789,3.235-9.307,3.235
	c-1.192,0-2.384-0.17-3.519-0.397c-0.908,7.491-7.321,13.28-15.039,13.28c-5.221,0-9.818-2.611-12.542-6.64
	c-1.816,5.675-7.094,9.761-13.336,9.761c-2.667,0-5.164-0.738-7.264-2.043c-1.759,3.348-5.221,5.618-9.25,5.618
	c-1.816,0-3.575-0.454-5.051-1.305c-1.419,2.951-4.483,4.994-8.002,4.994c-4.881,0-8.853-3.973-8.853-8.853
	c0-4.881,3.973-8.853,8.853-8.853L157.936,289.199z"/>
</svg>