<?xml version="1.0" encoding="iso-8859-1"?>
<!-- Uploaded to: SVG Repo, www.svgrepo.com, Generator: SVG Repo Mixer Tools -->
<svg height="800px" width="800px" version="1.1" id="Layer_1" xmlns="http://www.w3.org/2000/svg" xmlns:xlink="http://www.w3.org/1999/xlink" 
	 viewBox="0 0 512 512" xml:space="preserve">
<circle style="fill:#FFE356;" cx="256" cy="255.94" r="255.94"/>
<g>
	<path style="fill:#83CF8F;" d="M439.856,242.791l67.661,61.445c-9.563,49.969-33.591,94.797-67.661,129.823V242.791z"/>
	<path style="fill:#83CF8F;" d="M336.332,242.791l103.404,94.08v97.307c-28.451,29.288-63.836,51.881-103.404,64.911V242.791z"/>
</g>
<path style="fill:#75BD80;" d="M393.593,377.634l22.235,78.3c-7.053,5.738-14.465,10.998-22.235,15.899v-94.319V377.634z"/>
<path style="fill:#FEFEFE;" d="M374.945,336.751h14.465v25.702h-14.465V336.751z M403.276,414.812h14.465v25.702h-14.465V414.812z
	 M374.945,414.812h14.465v25.702h-14.465V414.812z M403.276,336.751h14.465v25.702h-14.465V336.751z"/>
<path style="fill:#FFFFFF;" d="M30.782,377.634h362.811v94.319C353.905,497.296,306.686,512,256,512
	C158.693,512,74.057,457.608,30.782,377.634z"/>
<path style="fill:#ECF0F1;" d="M36.401,387.556h357.193v84.397c-5.26,3.347-10.52,6.455-16.019,9.444L37.835,389.828
	c-0.478-0.717-0.956-1.435-1.315-2.271H36.401z"/>
<polygon style="fill:#FFFFFF;" points="75.371,302.442 336.332,302.442 336.332,377.634 75.371,377.634 "/>
<polygon style="fill:#ECF0F1;" points="75.371,302.442 336.332,302.442 336.332,356.954 "/>
<polygon style="fill:#FFFFFF;" points="133.23,124.444 176.982,124.444 188.459,302.442 121.754,302.442 "/>
<polygon style="fill:#DCE3DB;" points="173.038,124.444 176.982,124.444 188.459,302.442 177.461,302.442 "/>
<g>
	<path style="fill:#FF7069;" d="M179.373,161.024l0.598,9.324h-49.61l0.598-9.324H179.373z M181.286,190.909l0.598,9.324h-53.555
		l0.598-9.324H181.286z"/>
	<polygon style="fill:#FF7069;" points="133.23,124.444 176.982,124.444 177.58,133.29 132.632,133.29 	"/>
</g>
<polygon style="fill:#FFFFFF;" points="245.122,124.444 288.874,124.444 300.35,302.442 233.646,302.442 "/>
<polygon style="fill:#DCE3DB;" points="284.929,124.444 288.874,124.444 300.35,302.442 289.352,302.442 "/>
<g>
	<path style="fill:#FF7069;" d="M291.265,161.024l0.598,9.324h-49.61l0.598-9.324H291.265z M293.178,190.909l0.598,9.324H240.22
		l0.598-9.324H293.178z"/>
	<polygon style="fill:#FF7069;" points="245.122,124.444 288.874,124.444 289.472,133.29 244.524,133.29 	"/>
</g>
<g>
	<polygon style="fill:#6C7678;" points="75.371,302.442 336.332,302.442 336.332,313.44 75.371,313.44 	"/>
	<path style="fill:#6C7678;" d="M30.782,377.634h362.811v9.922H36.401C34.488,384.329,32.575,380.982,30.782,377.634z"/>
</g>
<polygon style="fill:#75BD80;" points="336.332,302.442 363.229,377.634 336.332,377.634 "/>
<path style="fill:#FEFEFE;" d="M464.721,336.751h14.345v25.702h-14.345V336.751z M498.91,336.751
	c-1.793,5.379-3.706,10.639-5.858,15.899v-15.899H498.91z"/>
<g>
	<path style="fill:#5FDC68;" d="M339.799,30.961C231.016,9.324,248.708,115,303.817,89.179
		C329.04,77.344,325.454,38.971,339.799,30.961z"/>
	<path style="fill:#5FDC68;" d="M202.206,82.604c61.923-37.058,71.606,26.06,35.624,22.594
		C220.137,103.524,212.726,83.201,202.206,82.604z"/>
</g>
<g>
	<path style="fill:#6C7678;" d="M270.345,124.444h-4.423c-1.195-43.992-35.624-41.242-35.743-41.362
		c19.964-4.543,41.601,13.867,40.047,41.362H270.345z"/>
	<path style="fill:#6C7678;" d="M327.367,34.189c-56.185,12.313-51.762,46.861-55.707,90.374h-5.858
		c2.869-40.764-0.239-81.528,61.445-90.374H327.367z"/>
</g>
<g>
	<path style="fill:#5FDC68;" d="M205.194,54.033c-82.006-16.258-68.617,63.357-27.136,43.872
		C197.066,88.94,194.436,60.13,205.194,54.033z"/>
	<path style="fill:#5FDC68;" d="M101.671,92.884c46.622-27.853,53.914,19.605,26.777,17.095
		C115.06,108.784,109.561,93.482,101.671,92.884z"/>
</g>
<g>
	<path style="fill:#6C7678;" d="M152.954,124.444h-3.347c-0.956-33.113-26.777-31.081-26.897-31.081
		C137.773,89.896,154.03,103.763,152.954,124.444z"/>
	<path style="fill:#6C7678;" d="M195.99,56.424c-42.318,9.324-38.971,35.265-41.959,68.02h-4.423
		c2.152-30.722-0.239-61.325,46.263-68.02H195.99z"/>
</g>
<g>
	<path style="fill:#83CF8F;" d="M86.011,332.208h19.844v16.138H86.011V332.208z M235.558,332.208h19.844v16.138h-19.844V332.208z
		 M198.141,332.208h19.844v16.138h-19.844V332.208z M160.725,332.208h19.844v16.138h-19.844V332.208z M123.308,332.208h19.844
		v16.138h-19.844V332.208z"/>
	<path style="fill:#83CF8F;" d="M88.162,400.945h33.113v28.81H88.162V400.945z M338.604,400.945h33.113v28.81h-33.113V400.945z
		 M275.964,400.945h33.113v28.81h-33.113V400.945z M213.323,400.945h33.113v28.81h-33.113V400.945z M150.683,400.945h33.113v28.81
		h-33.113V400.945z"/>
</g>
</svg>