<?xml version="1.0" encoding="iso-8859-1"?>
<!-- Uploaded to: SVG Repo, www.svgrepo.com, Generator: SVG Repo Mixer Tools -->
<svg height="800px" width="800px" version="1.1" id="Layer_1" xmlns="http://www.w3.org/2000/svg" xmlns:xlink="http://www.w3.org/1999/xlink" 
	 viewBox="0 0 492 492" xml:space="preserve">
<path style="fill:#1E4B7C;" d="M398.872,276.288c0,82.488-68.456,65.016-152.872,65.016S93.12,358.776,93.12,276.288
	c0-82.496,68.464-149.36,152.88-149.36S398.872,193.8,398.872,276.288z"/>
<path style="fill:#0A3A66;" d="M246,126.928c84.424,0,152.872,66.864,152.872,149.36c0,82.488-68.456,65.016-152.872,65.016"/>
<path style="fill:#2F689B;" d="M492,291.744c0,39.672-110.144,71.824-246,71.824S0,331.416,0,291.744
	c0-39.68,110.144-12.376,246-12.376S492,252.064,492,291.744z"/>
<path style="fill:#1E4B7C;" d="M492,291.744c0,39.672-110.144,71.824-246,71.824S0,331.416,0,291.744
	c0-39.68,110.144,11.624,246,11.624S492,252.064,492,291.744z"/>
<path style="fill:#0A3A66;" d="M246,335.736c-100.056,0-186.104-18.488-224.536-42.488H0c0,40,110.144,71.824,246,71.824
	s246-31.824,246-71.824h-21.464C432.104,317.248,346.056,335.736,246,335.736z"/>
<g>
	<path style="fill:#2F689B;" d="M246,139.6c84.424,0,152.872,54.192,152.872,136.688c0-82.496-68.456-149.36-152.872-149.36
		S93.12,193.792,93.12,276.288C93.12,193.8,161.576,139.6,246,139.6z"/>
	<circle style="fill:#2F689B;" cx="203.992" cy="251.264" r="5"/>
	<circle style="fill:#2F689B;" cx="232" cy="251.264" r="5"/>
	<circle style="fill:#2F689B;" cx="259.992" cy="251.264" r="5"/>
	<circle style="fill:#2F689B;" cx="288" cy="251.264" r="5"/>
</g>
</svg>