<?xml version="1.0" encoding="iso-8859-1"?>
<!-- Uploaded to: SVG Repo, www.svgrepo.com, Generator: SVG Repo Mixer Tools -->
<svg height="800px" width="800px" version="1.1" id="Layer_1" xmlns="http://www.w3.org/2000/svg" xmlns:xlink="http://www.w3.org/1999/xlink" 
	 viewBox="0 0 496 496" xml:space="preserve">
<path style="fill:#493322;" d="M270.4,0h-16.8c-84,0-152.8,64-167.2,144l0,0L37.6,368h48.8c8,72,38.4,128,116,128h118.4
	c93.6,0,119.2-61.6,119.2-155.2V104C440,10.4,364,0,270.4,0z"/>
<path style="fill:#3A2819;" d="M322.4,492C416,492,440,434.4,440,340.8V104C440,10.4,364,0,270.4,0H256"/>
<path style="fill:#82C60A;" d="M458.4,33.6L458.4,33.6l-0.8-0.8L458.4,33.6C362.4,72.8,276,16.8,200,102.4
	c-44,49.6-28.8,118.4-6.4,194.4l0,0l0.8,0.8l0,0c76,22.4,145.6,37.6,194.4-6.4C473.6,215.2,417.6,128.8,458.4,33.6z"/>
<path style="fill:#5EA304;" d="M192.8,297.6L192.8,297.6l0.8,0.8L192.8,297.6C269.6,320.8,339.2,336,388,292
	c85.6-76,28.8-162.4,69.6-257.6l0,0l-0.8-0.8l0,0"/>
<g>
	<polygon style="fill:#74B208;" points="340.8,150.4 324.8,81.6 324.8,166.4 409.6,166.4 	"/>
	<polygon style="fill:#74B208;" points="252,238.4 236.8,169.6 236.8,254.4 320.8,254.4 	"/>
	<polygon style="fill:#74B208;" points="297.6,192 279.2,112.8 279.2,208 375.2,208 	"/>
</g>
<path style="fill:#239B02;" d="M120.8,293.6c0-44,23.2-95.2,47.2-109.6l0,0l0,0l0,0l0,0c32,15.2,47.2,66.4,47.2,110.4
	s-15.2,68-47.2,83.2l0,0l0,0l0,0l0,0C144,361.6,120.8,337.6,120.8,293.6z"/>
<path style="fill:#34B515;" d="M168,376L168,376C168,376.8,168,376.8,168,376C168,376.8,168,376.8,168,376L168,376
	c-24-14.4-47.2-38.4-47.2-82.4S144,198.4,168,184l0,0l0,0l0,0l0,0"/>
</svg>