<?xml version="1.0" encoding="iso-8859-1"?>
<!-- Uploaded to: SVG Repo, www.svgrepo.com, Generator: SVG Repo Mixer Tools -->
<svg height="800px" width="800px" version="1.1" id="Layer_1" xmlns="http://www.w3.org/2000/svg" xmlns:xlink="http://www.w3.org/1999/xlink" 
	 viewBox="0 0 496 496" xml:space="preserve">
<path style="fill:#EAE9DA;" d="M120.8,30.4C173.6,30.4,220,60,236,104c1.6,4,7.2,6.4,12,5.6c4.8,1.6,10.4-0.8,12-5.6
	c16-44,62.4-73.6,115.2-73.6c66.4,0,120.8,48,120.8,106.4c0,21.6-7.2,41.6-20.8,59.2c0,0,0,0,0,0.8l-0.8,0.8L248,465.6L21.6,198.4
	c0-0.8-0.8-0.8-0.8-0.8l0,0C7.2,179.2,0,158.4,0,136.8C0,78.4,54.4,30.4,120.8,30.4z"/>
<path style="fill:#DB5435;" d="M120.8,30.4C173.6,30.4,220,60,236,104c1.6,4,5.6,5.6,12,5.6c4.8,1.6,10.4-0.8,12-5.6
	c16-44,62.4-73.6,115.2-73.6c66.4,0,120.8,48,120.8,106.4c0,21.6-7.2,41.6-20.8,59.2c0,0,0,0,0,0.8l-0.8,0.8L248,465.6L21.6,198.4
	c0-0.8-0.8-0.8-0.8-0.8l0,0C7.2,179.2,0,158.4,0,136.8C0,78.4,54.4,30.4,120.8,30.4z"/>
<path style="fill:#EFDFAB;" d="M283.2,82.4c4-4,5.6-10.4,0-15.2c-8.8,8.8-15.2,18.4-20.8,29.6C271.2,92.8,279.2,87.2,283.2,82.4z"/>
<g>
	<path style="fill:#C43D27;" d="M409.6,35.2c-11.2-3.2-22.4-4.8-34.4-4.8C322.4,30.4,276,60,260,104c-1.6,4-4.8,5.6-12,5.6v87.2
		L409.6,35.2z"/>
	<path style="fill:#C43D27;" d="M248,232.8v90.4L482.4,88.8C472,70.4,456,55.2,436,44.8L248,232.8z"/>
	<path style="fill:#C43D27;" d="M248,360v105.6l226.4-267.2l0.8-0.8c0,0,0,0,0-0.8c13.6-17.6,20.8-38.4,20.8-59.2
		c0-8-0.8-15.2-2.4-22.4L248,360z"/>
</g>
<path style="fill:#EFDFAB;" d="M321.6,298.4c8.8,9.6,23.2,10.4,32.8,1.6c9.6-8.8,10.4-23.2,1.6-32.8L270.4,172l0,0l-43.2-48l0.8,0.8
	l-23.2-25.6l30.4,2.4l0,0l9.6,0.8c6.4,0.8,31.2-11.2,38.4-20c7.2-8,6.4-23.2-30.4-23.2l-92-22.4c-12.8-4-26.4-5.6-40-5.6
	C54.4,30.4,0,78.4,0,136.8c0,21.6,7.2,41.6,20.8,59.2l0,0l0.8,0.8l99.2,117.6l48.8,53.6c8.8,9.6,23.2,10.4,32.8,1.6
	s10.4-23.2,1.6-32.8l-60.8-67.2l4.8-4.8l92,102.4c8.8,9.6,23.2,10.4,32.8,1.6c9.6-8.8,10.4-23.2,1.6-32.8l-91.2-101.6l4.8-4.8
	L298.4,352c8.8,9.6,23.2,10.4,32.8,1.6c9.6-8.8,10.4-23.2,1.6-32.8L222.4,198.4l4.8-4.8L321.6,298.4z"/>
<path style="fill:#E2CF9F;" d="M121.6,316l48.8,53.6c8.8,9.6,23.2,10.4,32.8,1.6s10.4-23.2,1.6-32.8L144,271.2l4.8-4.8L240,367.2
	c8.8,9.6,23.2,10.4,32.8,1.6c9.6-8.8,10.4-23.2,1.6-32.8l-91.2-101.6l4.8-4.8L298.4,352c8.8,9.6,23.2,10.4,32.8,1.6
	c9.6-8.8,10.4-23.2,1.6-32.8L222.4,198.4l4.8-4.8l94.4,104c8.8,9.6,23.2,10.4,32.8,1.6c9.6-8.8,10.4-23.2,1.6-32.8L270.4,172l0,0
	l-43.2-48l0.8,0.8l-23.2-25.6l30.4,2.4l0,0l9.6,0.8c6.4,0.8,31.2-11.2,38.4-20c7.2-8,6.4-23.2-30.4-23.2l-92-22.4
	c-12.8-4-26.4-5.6-40-5.6"/>
<path style="fill:#DBC791;" d="M20.8,196.8L20.8,196.8"/>
</svg>