<?xml version="1.0" encoding="iso-8859-1"?>
<!-- Uploaded to: SVG Repo, www.svgrepo.com, Generator: SVG Repo Mixer Tools -->
<svg height="800px" width="800px" version="1.1" id="Layer_1" xmlns="http://www.w3.org/2000/svg" xmlns:xlink="http://www.w3.org/1999/xlink" 
	 viewBox="0 0 512 512" xml:space="preserve">
<path style="fill:#2A5637;" d="M317.962,161.039c-9.21,0-16.676-7.467-16.676-16.676V50.009c0-9.21,7.467-16.676,16.676-16.676
	s16.676,7.467,16.676,16.676v94.353C334.638,153.573,327.172,161.039,317.962,161.039z"/>
<path style="fill:#4E7F4B;" d="M194.037,161.039c-9.21,0-16.676-7.467-16.676-16.676V50.009c0-9.21,7.467-16.676,16.676-16.676
	c9.21,0,16.676,7.467,16.676,16.676v94.353C210.713,153.573,203.247,161.039,194.037,161.039z"/>
<path style="fill:#91C0F1;" d="M437.908,428.25L420.75,126.415c-0.501-8.827-7.807-15.763-16.65-15.763H107.898
	c-8.842,0-16.147,6.935-16.65,15.763L74.092,428.233c-1.242,21.851,6.35,42.916,21.38,58.826
	C110.503,502.968,130.834,512,152.72,512h206.558c21.887,0,42.218-9.023,57.248-24.934
	C431.558,471.158,439.15,450.101,437.908,428.25z"/>
<path style="fill:#D7EDF3;" d="M248.218,110.653H107.898c-8.842,0-16.147,6.935-16.65,15.763L74.092,428.233
	c-1.242,21.851,6.35,42.916,21.38,58.826C110.503,502.968,130.834,512,152.72,512h95.496V110.653H248.218z"/>
<path style="fill:#489B6D;" d="M326.424,68.682c-5.082,0-10.1-2.315-13.375-6.7C299.462,43.788,278.669,33.353,256,33.353
	s-43.463,10.435-57.049,28.629c-5.51,7.38-15.96,8.895-23.339,3.383c-7.38-5.511-8.895-15.96-3.384-23.34
	C191.877,15.71,223.194,0,256,0s64.123,15.71,83.774,42.026c5.511,7.38,3.996,17.829-3.384,23.34
	C333.394,67.602,329.893,68.682,326.424,68.682z"/>
<g>
	<path style="fill:#A2CE86;" d="M256,33.353c-22.67,0-43.463,10.435-57.049,28.629c-5.51,7.38-15.96,8.895-23.339,3.383
		c-7.38-5.511-8.895-15.96-3.384-23.34C191.877,15.71,223.194,0,256,0V33.353z"/>
	<path style="fill:#A2CE86;" d="M217.115,394.523c-0.415,0-0.834-0.016-1.254-0.047l-35.868-2.668
		c-6.407-0.477-12.369-3.306-16.789-7.969c-7.543-7.957-9.221-19.846-4.174-29.581l25.119-48.461
		c4.239-8.177,14.304-11.371,22.481-7.132c8.176,4.239,11.37,14.303,7.131,22.48L193.932,359.4l24.401,1.816
		c9.185,0.683,16.077,8.683,15.395,17.867C233.077,387.847,225.762,394.523,217.115,394.523z"/>
</g>
<path style="fill:#489B6D;" d="M210.333,354.058c-7.786,0-14.749-5.48-16.334-13.407l-2.518-12.575l-11.717,5.212
	c-8.417,3.743-18.272-0.046-22.015-8.459c-3.743-8.415,0.044-18.272,8.458-22.014l30.757-13.681c4.627-2.06,9.939-1.902,14.44,0.425
	c4.498,2.327,7.696,6.573,8.69,11.539l6.607,33.007c1.808,9.031-4.048,17.817-13.079,19.625
	C212.52,353.952,211.418,354.058,210.333,354.058z"/>
<path style="fill:#A2CE86;" d="M275.529,391.439c-9.193,0-16.654-7.441-16.675-16.639c-0.021-9.21,7.429-16.693,16.639-16.714
	l43.089-0.097l-9.669-22.478c-3.639-8.461,0.269-18.27,8.731-21.91c8.457-3.64,18.27,0.269,21.908,8.73l14.212,33.039
	c2.538,5.901,2.785,12.496,0.693,18.57c-3.571,10.366-13.336,17.348-24.299,17.375l-54.588,0.122
	C275.555,391.439,275.543,391.439,275.529,391.439z M323.124,368.551h0.012H323.124z"/>
<path style="fill:#489B6D;" d="M291.584,412.353c-3.638,0-7.3-1.184-10.368-3.624l-26.348-20.951
	c-3.963-3.152-6.28-7.936-6.297-13.001c-0.017-5.065,2.271-9.862,6.216-13.04l26.215-21.116c7.173-5.779,17.672-4.646,23.448,2.526
	c5.777,7.172,4.647,17.671-2.526,23.448l-9.987,8.045l10.038,7.982c7.209,5.732,8.406,16.223,2.673,23.433
	C301.357,410.196,296.494,412.353,291.584,412.353z"/>
<path style="fill:#A2CE86;" d="M296.727,296.583c-5.63,0-11.125-2.851-14.265-8.014l-22.389-36.814l-14.226,19.908
	c-5.355,7.493-15.769,9.227-23.264,3.873c-7.493-5.354-9.228-15.77-3.872-23.264l20.911-29.264
	c3.73-5.224,9.245-8.851,15.528-10.206c10.713-2.312,21.747,2.427,27.446,11.795l28.364,46.641
	c4.786,7.869,2.286,18.128-5.583,22.913C302.67,295.8,299.68,296.583,296.727,296.583z"/>
<path style="fill:#489B6D;" d="M301.935,305.398c-1.92,0-3.847-0.331-5.696-1.003l-31.637-11.498
	c-8.655-3.146-13.123-12.713-9.977-21.369c3.145-8.656,12.713-13.124,21.37-9.977l12.053,4.38l1.633-12.721
	c1.173-9.135,9.527-15.591,18.663-14.417c9.135,1.173,15.59,9.529,14.418,18.664l-4.285,33.389
	c-0.645,5.024-3.538,9.482-7.862,12.117C307.968,304.575,304.961,305.398,301.935,305.398z"/>
</svg>