<?xml version="1.0" encoding="iso-8859-1"?>
<!-- Uploaded to: SVG Repo, www.svgrepo.com, Generator: SVG Repo Mixer Tools -->
<svg height="800px" width="800px" version="1.1" id="Layer_1" xmlns="http://www.w3.org/2000/svg" xmlns:xlink="http://www.w3.org/1999/xlink" 
	 viewBox="0 0 511.868 511.868" xml:space="preserve">
<circle style="fill:#6B7F9E;" cx="255.934" cy="255.934" r="255.934"/>
<path style="fill:#5FDC68;" d="M353.358,153.376c9.216-115.46-154.956-165.357-203.01-0.658c0,0,28.174-28.569,53.583-24.093
	c34.888,6.056,58.586,81.888,149.427,24.882V153.376z"/>
<path style="fill:#56BF5D;" d="M163.777,117.698c-5.134,10.401-9.611,21.986-13.429,35.02c0,0,28.174-28.569,53.583-24.093
	c9.611,1.712,18.3,8.557,27.911,16.588l0,0C225.917,134.945,194.32,102.295,163.777,117.698z"/>
<path style="fill:#FFE356;" d="M367.313,159.959l-5.924,5.398c-35.678-46.474-119.541-111.642-169.701-64.642
	C243.822,46.737,332.688,111.905,367.313,159.959z"/>
<path style="fill:#5FDC68;" d="M126.914,228.155C22.249,277.92,61.219,444.988,227.76,404.308c0,0-38.838-10.137-47.659-34.362
	C167.858,336.638,221.704,278.184,126.914,228.155z"/>
<path style="fill:#75BD80;" d="M190.897,410.232c11.586-0.79,23.829-2.633,36.995-5.924c0,0-38.838-10.137-47.659-34.362
	c-3.291-9.084-1.711-20.143,0.395-32.387l0,0C174.704,347.828,162.197,391.406,190.897,410.232z"/>
<path style="fill:#FFE356;" d="M125.729,212.884l7.636,2.501c-22.513,54.11-36.995,159.432,28.832,179.312
	c-72.804-18.168-60.692-127.704-36.468-181.682V212.884z"/>
<path style="fill:#5FDC68;" d="M307.147,390.879c95.449,65.695,220.651-51.476,102.163-175.494c0,0,10.664,38.706-5.924,58.454
	c-22.776,27.121-100.32,9.874-96.239,116.908V390.879z"/>
<path style="fill:#56BF5D;" d="M432.876,244.48c-6.451-9.611-14.219-19.353-23.566-29.095c0,0,10.664,38.706-5.924,58.454
	c-6.188,7.504-16.588,11.585-28.305,15.798l0,0c11.849,0,55.821-11.059,57.796-45.289V244.48z"/>
<path style="fill:#FFE356;" d="M294.509,399.568l-1.711-7.899c58.191-7.636,156.536-47.659,140.869-114.67
	c20.67,72.146-80.177,116.382-139.158,122.438V399.568z"/>
</svg>