<?xml version="1.0" encoding="iso-8859-1"?>
<!-- Uploaded to: SVG Repo, www.svgrepo.com, Generator: SVG Repo Mixer Tools -->
<svg version="1.1" id="Layer_1" xmlns="http://www.w3.org/2000/svg" xmlns:xlink="http://www.w3.org/1999/xlink" 
	 viewBox="0 0 511.843 511.843" xml:space="preserve">
<path style="fill:#FFD2A6;" d="M440.41,501.192c-28.96,0-82.178-20.525-82.725-20.729l-1.859-0.719H156.005l-1.859,0.719
	c-0.531,0.203-53.765,20.729-82.709,20.729c-8.138,0-10.388-1.75-10.474-1.812c-1.234-1.125-3.514-11.246,7.748-40.113
	c7.802-19.962,17.939-38.363,18.041-38.55l2.897-5.249l-2.968-5.201c-5.771-10.091-11.895-67.62-11.895-154.328
	s6.123-144.229,11.895-154.32l2.976-5.209l-2.905-5.248c-0.102-0.18-10.239-18.573-18.033-38.551
	c-11.27-28.866-8.99-38.973-7.756-40.105c0.234-0.188,2.515-1.835,10.646-1.835c28.999,0,82.037,20.235,82.568,20.446l1.851,0.703
	H355.81l1.844-0.703c0.531-0.211,53.578-20.446,82.568-20.446c8.139,0,10.419,1.647,10.653,1.835
	c1.233,1.133,3.53,11.286-7.825,40.277c-7.811,19.97-17.854,38.199-17.964,38.379l-2.905,5.248l2.983,5.209
	c5.764,10.091,11.887,67.612,11.887,154.32s-6.123,144.237-11.887,154.328l-2.983,5.201l2.905,5.249
	c0.094,0.187,10.231,18.588,18.042,38.55c11.262,28.867,8.98,38.988,7.747,40.113C450.642,499.567,448.408,501.192,440.41,501.192
	L440.41,501.192z"/>
<path style="fill:#F4BE8E;" d="M434.412,96.33c0,0,42.409-76.609,23.165-92.128C453.859,1.211,447.721,0,440.223,0
	c-31.35,0-86.38,21.157-86.38,21.157H158.005c0,0-55.046-21.149-86.396-21.157c-7.49,0-13.629,1.211-17.338,4.202
	C35.019,19.721,77.42,96.33,77.42,96.33c-17.737,31.029-17.737,288.178,0,319.23c0,0-42.401,76.602-23.149,92.129
	c3.678,2.967,9.754,4.154,17.167,4.154c31.318,0,86.567-21.431,86.567-21.431h195.838c0,0,55.233,21.431,86.567,21.431
	c7.404,0,13.48-1.188,17.167-4.154c19.244-15.527-23.165-92.129-23.165-92.129C452.156,384.508,452.156,127.36,434.412,96.33z
	 M441.051,490.507c-0.219,0.016-0.422,0.016-0.641,0.016c-22.353,0-64.512-14.433-78.866-19.994l-3.718-1.452h-3.983H158.005h-3.991
	l-3.717,1.437c-14.363,5.577-56.514,20.01-78.859,20.01c-0.227,0-0.438,0-0.641-0.016c0.602-5.312,2.843-15.62,10.325-33.458
	c7.037-16.777,14.886-31.022,14.956-31.163l5.811-10.497l-5.866-10.262c-0.414-0.906-4.42-10.685-7.458-51.672
	c-2.007-27.18-3.116-61.81-3.116-97.518c0-35.7,1.109-70.33,3.124-97.51c3.03-40.979,7.045-50.766,7.451-51.671l5.858-10.263
	l-5.795-10.489c-0.078-0.141-7.927-14.394-14.964-31.162c-7.498-17.894-9.731-28.194-10.333-33.506
	c0.266-0.008,0.539-0.008,0.82-0.008c22.407,0,64.441,14.246,78.742,19.736l3.694,1.422h3.96h195.838h3.952l3.687-1.422
	c14.308-5.49,56.342-19.736,78.741-19.736c0.297,0,0.562,0,0.828,0.008c-0.609,5.312-2.843,15.612-10.341,33.506
	c-7.028,16.769-14.87,31.021-14.948,31.154l-5.811,10.497l5.873,10.263c0.406,0.905,4.404,10.691,7.451,51.671
	c2.015,27.18,3.123,61.81,3.123,97.51c0,35.708-1.108,70.338-3.123,97.518c-3.047,40.987-7.045,50.766-7.467,51.672l-5.857,10.262
	l5.795,10.481c0.094,0.156,7.936,14.401,14.964,31.179C438.208,474.887,440.442,485.195,441.051,490.507z"/>
<rect x="149.322" y="170.442" style="fill:#EC5564;" width="213.27" height="170.55"/>
</svg>