<?xml version="1.0" encoding="iso-8859-1"?>
<!-- Uploaded to: SVG Repo, www.svgrepo.com, Generator: SVG Repo Mixer Tools -->
<svg height="800px" width="800px" version="1.1" id="Layer_1" xmlns="http://www.w3.org/2000/svg" xmlns:xlink="http://www.w3.org/1999/xlink" 
	 viewBox="0 0 512 512" xml:space="preserve">
<path style="fill:#F2BA57;" d="M257.212,131.818c-10.042,0-18.183-8.141-18.183-18.183V71.208c0-10.042,8.141-18.183,18.183-18.183
	c10.042,0,18.183,8.141,18.183,18.183v42.427C275.395,123.677,267.254,131.818,257.212,131.818z"/>
<path style="fill:#E56C1E;" d="M331.251,163.305c-4.654,0-9.306-1.775-12.858-5.326c-7.1-7.101-7.1-18.613,0-25.714l30.608-30.608
	c7.101-7.1,18.612-7.1,25.714,0c7.1,7.101,7.1,18.613,0,25.714l-30.608,30.608C340.558,161.53,335.905,163.305,331.251,163.305z"/>
<path style="fill:#F2BA57;" d="M183.217,163.305c-4.654,0-9.307-1.775-12.857-5.325l-30.608-30.608
	c-7.101-7.101-7.101-18.613,0-25.714c7.101-7.101,18.615-7.101,25.714,0l30.608,30.608c7.101,7.101,7.101,18.613,0,25.714
	C192.524,161.531,187.871,163.305,183.217,163.305z"/>
<g>
	<path style="fill:#E56C1E;" d="M297.138,140.28c-2.23,0-4.497-0.413-6.697-1.286c-9.335-3.702-13.902-14.27-10.199-23.605
		l15.641-39.439c3.702-9.335,14.27-13.9,23.605-10.199c9.335,3.702,13.902,14.27,10.199,23.605l-15.641,39.439
		C311.217,135.93,304.374,140.28,297.138,140.28z"/>
	<path style="fill:#E56C1E;" d="M351.3,196.505c-7.036,0-13.733-4.107-16.701-10.975c-3.983-9.219,0.261-19.921,9.479-23.903
		l39.736-17.17c9.219-3.983,19.92,0.261,23.903,9.479c3.983,9.219-0.261,19.921-9.479,23.903l-39.736,17.17
		C356.153,196.024,353.707,196.505,351.3,196.505z"/>
</g>
<g>
	<path style="fill:#F2BA57;" d="M160.7,196.505c-2.407,0-4.852-0.48-7.203-1.496l-39.736-17.17
		c-9.218-3.983-13.463-14.685-9.479-23.903s14.683-13.465,23.903-9.479l39.736,17.17c9.218,3.983,13.463,14.685,9.479,23.903
		C174.432,192.398,167.735,196.505,160.7,196.505z"/>
	<path style="fill:#F2BA57;" d="M216.896,141.932c-7.036,0-13.733-4.107-16.701-10.976l-17.17-39.737
		c-3.983-9.218,0.261-19.92,9.479-23.903c9.218-3.982,19.92,0.261,23.903,9.479l17.17,39.736c3.983,9.219-0.261,19.921-9.479,23.903
		C221.749,141.451,219.302,141.932,216.896,141.932z"/>
</g>
<path style="fill:#F5CA47;" d="M366.166,216.673c0,30.197-54.273,5.838-108.945,6.061c-55.486,0.227-111.386,24.585-111.386-6.061
	c0-60.843,49.323-110.165,110.165-110.165S366.166,155.83,366.166,216.673z"/>
<path style="fill:#F7F4A3;" d="M145.835,216.673c0-60.843,49.323-110.165,110.165-110.165l0.179,110.973
	C225.038,254.153,145.835,234.458,145.835,216.673z"/>
<path style="fill:#007AB7;" d="M18.183,257.749c28.135,0,55.76-9.893,79.268-28.139c23.518,18.248,51.146,28.139,79.283,28.139
	c28.135,0,55.76-9.893,79.268-28.139c23.518,18.248,51.146,28.139,79.283,28.139c28.128,0,55.753-9.888,79.266-28.125
	c23.513,18.238,51.138,28.125,79.266,28.125c10.042,0,18.183-8.141,18.183-18.183s-8.141-18.183-18.183-18.183
	c-24.179,0-47.201-9.979-66.577-28.859c-7.06-6.879-18.318-6.879-25.379,0c-19.377,18.88-42.399,28.859-66.577,28.859
	c-24.185,0-47.213-9.985-66.594-28.875c-7.062-6.883-18.325-6.883-25.386,0.004c-19.369,18.889-42.388,28.871-66.57,28.871
	c-24.185,0-47.213-9.985-66.594-28.875c-7.062-6.883-18.325-6.883-25.386,0.004c-19.371,18.887-42.389,28.871-66.573,28.871
	C8.141,221.383,0,229.524,0,239.566S8.141,257.749,18.183,257.749z"/>
<path style="fill:#0EABD9;" d="M18.183,257.749c28.135,0,55.76-9.893,79.268-28.139c23.518,18.248,51.146,28.139,79.283,28.139
	c28.135,0,55.76-9.893,79.268-28.139l0.177-42.263c-4.642-0.046-9.296,1.675-12.875,5.164
	c-19.369,18.889-42.388,28.871-66.57,28.871c-24.185,0-47.213-9.985-66.594-28.875c-7.062-6.883-18.325-6.883-25.386,0.004
	c-19.37,18.889-42.388,28.872-66.572,28.872C8.141,221.383,0,229.524,0,239.566S8.141,257.749,18.183,257.749z"/>
<path style="fill:#007AB7;" d="M18.183,358.362c28.135,0,55.76-9.893,79.268-28.139c23.518,18.248,51.146,28.139,79.283,28.139
	c28.135,0,55.76-9.893,79.268-28.139c23.518,18.248,51.146,28.139,79.283,28.139c28.128,0,55.753-9.888,79.266-28.125
	c23.513,18.238,51.138,28.125,79.266,28.125c10.042,0,18.183-8.141,18.183-18.183s-8.141-18.183-18.183-18.183
	c-24.179,0-47.201-9.979-66.577-28.859c-7.06-6.879-18.318-6.879-25.379,0c-19.377,18.88-42.399,28.859-66.577,28.859
	c-24.185,0-47.213-9.985-66.594-28.875c-7.062-6.883-18.325-6.883-25.386,0.004c-19.369,18.888-42.388,28.871-66.57,28.871
	c-24.185,0-47.213-9.985-66.594-28.875c-7.062-6.883-18.325-6.883-25.386,0.004c-19.371,18.887-42.389,28.871-66.573,28.871
	C8.141,321.996,0,330.137,0,340.179S8.141,358.362,18.183,358.362z"/>
<path style="fill:#0EABD9;" d="M18.183,358.362c28.135,0,55.76-9.893,79.268-28.139c23.518,18.248,51.146,28.139,79.283,28.139
	c28.135,0,55.76-9.893,79.268-28.139l0.177-42.263c-4.642-0.046-9.296,1.675-12.875,5.164
	c-19.369,18.889-42.388,28.871-66.57,28.871c-24.185,0-47.213-9.985-66.594-28.875c-7.062-6.883-18.325-6.883-25.386,0.004
	c-19.37,18.889-42.388,28.872-66.572,28.872C8.141,321.996,0,330.137,0,340.179S8.141,358.362,18.183,358.362z"/>
<path style="fill:#007AB7;" d="M18.183,458.975c28.135,0,55.76-9.893,79.268-28.139c23.518,18.248,51.146,28.139,79.283,28.139
	c28.135,0,55.76-9.893,79.268-28.139c23.518,18.248,51.146,28.139,79.283,28.139c28.128,0,55.753-9.888,79.266-28.125
	c23.513,18.238,51.138,28.125,79.266,28.125c10.042,0,18.183-8.141,18.183-18.183s-8.141-18.183-18.183-18.183
	c-24.179,0-47.201-9.979-66.577-28.859c-7.06-6.879-18.318-6.879-25.379,0c-19.377,18.88-42.399,28.859-66.577,28.859
	c-24.185,0-47.213-9.985-66.594-28.875c-7.062-6.883-18.325-6.883-25.386,0.004c-19.369,18.889-42.388,28.871-66.57,28.871
	c-24.185,0-47.213-9.985-66.594-28.875c-7.062-6.883-18.325-6.883-25.386,0.004c-19.371,18.887-42.389,28.871-66.573,28.871
	C8.141,422.609,0,430.75,0,440.792S8.141,458.975,18.183,458.975z"/>
<path style="fill:#0EABD9;" d="M18.183,458.975c28.135,0,55.76-9.893,79.268-28.139c23.518,18.248,51.146,28.139,79.283,28.139
	c28.135,0,55.76-9.893,79.268-28.139l0.177-42.263c-4.642-0.046-9.296,1.675-12.875,5.164
	c-19.369,18.889-42.388,28.871-66.57,28.871c-24.185,0-47.213-9.985-66.594-28.875c-7.062-6.883-18.325-6.883-25.386,0.004
	c-19.37,18.889-42.388,28.872-66.572,28.872C8.141,422.609,0,430.75,0,440.792S8.141,458.975,18.183,458.975z"/>
</svg>