<?xml version="1.0" encoding="iso-8859-1"?>
<!-- Uploaded to: SVG Repo, www.svgrepo.com, Generator: SVG Repo Mixer Tools -->
<svg height="800px" width="800px" version="1.1" id="Layer_1" xmlns="http://www.w3.org/2000/svg" xmlns:xlink="http://www.w3.org/1999/xlink" 
	 viewBox="0 0 511.88 511.88" xml:space="preserve">
<circle style="fill:#FF7069;" cx="255.94" cy="255.94" r="255.94"/>
<ellipse style="fill:#FFFFFF;" cx="255.821" cy="417.562" rx="122.411" ry="29.288"/>
<path style="fill:#E4E7ED;" d="M140.582,92.645h230.597v323.243c-20.322,34.189-223.783,29.049-230.597,0V92.645z"/>
<ellipse style="fill:#FFFFFF;" cx="255.821" cy="94.438" rx="122.411" ry="29.288"/>
<path style="fill:#FCD34E;" d="M370.581,93.721c-16.138,29.527-211.829,28.929-229.521,0c-0.359-0.717-0.359-1.435,0-2.152
	c19.725-30.244,208.362-29.407,229.402,0C370.94,92.167,370.94,93.004,370.581,93.721z"/>
<path style="fill:#FFE356;" d="M369.386,95.514c-22.354,27.136-203.939,26.658-227.13-0.239
	C166.762,66.944,344.163,67.781,369.386,95.514z"/>
<g>
	<path style="fill:#FFFFFF;" d="M371.179,153.731c4.662,3.108,7.173,6.455,7.173,9.922c0,16.138-54.87,29.288-122.411,29.288
		c-67.661,0-122.411-13.15-122.411-29.288c0-3.467,2.51-6.814,7.173-9.922v8.129c0,11.596,51.642,20.92,115.239,20.92
		c63.716,0,115.358-9.324,115.358-20.92v-8.129H371.179z"/>
	<path style="fill:#FFFFFF;" d="M371.418,334.24c4.662,3.108,7.173,6.455,7.173,9.922c0,16.138-54.87,29.288-122.411,29.288
		c-67.661,0-122.411-13.15-122.411-29.288c0-3.467,2.51-6.814,7.173-9.922v8.129c0,11.596,51.642,20.92,115.239,20.92
		c63.716,0,115.358-9.324,115.358-20.92v-8.129H371.418z"/>
	<circle style="fill:#FFFFFF;" cx="255.821" cy="283.435" r="55.707"/>
</g>
<g>
	<circle style="fill:#6C7678;" cx="255.821" cy="283.435" r="9.922"/>
	<path style="fill:#6C7678;" d="M237.292,331.371c-19.246-7.412-32.874-26.06-32.874-47.936c0-2.749,0.239-5.379,0.598-7.89
		l36.46,6.575c-0.239,2.869,0.359,5.858,1.793,8.488c1.554,2.63,3.825,4.662,6.455,5.858l-12.552,34.906H237.292z"/>
	<path style="fill:#6C7678;" d="M306.626,275.545c0.359,2.63,0.598,5.26,0.598,7.89c0,21.876-13.628,40.525-32.874,47.936
		l-12.552-34.906c2.63-1.195,4.901-3.228,6.455-5.858s2.152-5.618,1.793-8.488l36.46-6.575H306.626z"/>
	<path style="fill:#6C7678;" d="M255.821,232.151c12.193,0,23.43,4.304,32.276,11.357l-23.908,28.332
		c-2.391-1.674-5.26-2.63-8.248-2.63c-3.108,0-5.977,0.956-8.248,2.63l-23.908-28.332c8.846-7.173,20.083-11.357,32.276-11.357
		H255.821z"/>
</g>
</svg>